<svg width="71" height="71" viewBox="0 0 71 71" fill="none" xmlns="http://www.w3.org/2000/svg">
<g id="Group">
<g id="Group_2">
<path id="Vector" d="M35.5067 70.0133C16.4785 70.0133 1 54.5319 1 35.5067C1 16.4815 16.4815 1 35.5067 1C54.5318 1 70.0163 16.4815 70.0163 35.5067C70.0163 54.5319 54.5348 70.0133 35.5067 70.0133ZM35.5067 1.28741C16.6385 1.28741 1.29036 16.6356 1.29036 35.5037C1.29036 54.3719 16.6385 69.72 35.5067 69.72C54.3748 69.72 69.723 54.3719 69.723 35.5037C69.723 16.6356 54.3748 1.28741 35.5067 1.28741Z" fill="white" stroke="white" stroke-width="0.358519" stroke-miterlimit="10"/>
<path id="Vector_2" d="M35.5068 64.4963C19.5216 64.4963 6.51715 51.4919 6.51715 35.5067C6.51715 19.5215 19.5216 6.51709 35.5068 6.51709C51.492 6.51709 64.4964 19.5215 64.4964 35.5067C64.4964 51.4919 51.492 64.4963 35.5068 64.4963ZM35.5068 6.80745C19.6816 6.80745 6.80752 19.6815 6.80752 35.5067C6.80752 51.3319 19.6816 64.206 35.5068 64.206C51.332 64.206 64.206 51.3319 64.206 35.5067C64.206 19.6815 51.332 6.80745 35.5068 6.80745Z" fill="white" stroke="white" stroke-width="0.358519" stroke-miterlimit="10"/>
<path id="Vector_3" d="M35.5068 60.1497C21.9186 60.1497 10.8638 49.0949 10.8638 35.5067C10.8638 21.9186 21.9186 10.8638 35.5068 10.8638C49.0949 10.8638 60.1498 21.9186 60.1498 35.5067C60.1498 49.0949 49.0949 60.1497 35.5068 60.1497ZM35.5068 11.1541C22.0786 11.1541 11.1542 22.0786 11.1542 35.5067C11.1542 48.9349 22.0786 59.8593 35.5068 59.8593C48.9349 59.8593 59.8594 48.9349 59.8594 35.5067C59.8594 22.0786 48.9349 11.1541 35.5068 11.1541Z" fill="white" stroke="white" stroke-width="0.358519" stroke-miterlimit="10"/>
<path id="Vector_4" d="M35.5067 55.8001C24.3156 55.8001 15.2104 46.6949 15.2104 35.5038C15.2104 24.3127 24.3156 15.2075 35.5067 15.2075C46.6979 15.2075 55.803 24.3127 55.803 35.5038C55.803 46.6949 46.6979 55.8001 35.5067 55.8001ZM35.5067 15.4979C24.4756 15.4979 15.5008 24.4727 15.5008 35.5038C15.5008 46.5349 24.4756 55.5097 35.5067 55.5097C46.5379 55.5097 55.5127 46.5349 55.5127 35.5038C55.5127 24.4727 46.5379 15.4979 35.5067 15.4979Z" fill="white" stroke="white" stroke-width="0.358519" stroke-miterlimit="10"/>
<path id="Vector_5" d="M35.5068 51.9216C26.4549 51.9216 19.089 44.5556 19.089 35.5038C19.089 26.4519 26.4549 19.086 35.5068 19.086C44.5586 19.086 51.9245 26.4519 51.9245 35.5038C51.9245 44.5556 44.5586 51.9216 35.5068 51.9216ZM35.5068 19.3764C26.6149 19.3764 19.3794 26.6119 19.3794 35.5038C19.3794 44.3956 26.6149 51.6312 35.5068 51.6312C44.3986 51.6312 51.6342 44.3956 51.6342 35.5038C51.6342 26.6119 44.3986 19.3764 35.5068 19.3764Z" fill="white" stroke="white" stroke-width="0.358519" stroke-miterlimit="10"/>
</g>
<path id="Vector_6" d="M20.4993 36.7808C20.4993 37.486 19.9275 38.0579 19.2223 38.0579C18.5171 38.0579 17.9453 37.486 17.9453 36.7808C17.9453 36.0756 18.5171 35.5038 19.2223 35.5038C19.9275 35.5038 20.4993 36.0756 20.4993 36.7808Z" fill="white" stroke="white" stroke-width="1.01926" stroke-miterlimit="10"/>
<path id="Vector_7" d="M39.566 15.3556C39.566 16.0608 38.9941 16.6327 38.2889 16.6327C37.5838 16.6327 37.0119 16.0608 37.0119 15.3556C37.0119 14.6505 37.5838 14.0786 38.2889 14.0786C38.9941 14.0786 39.566 14.6505 39.566 15.3556Z" fill="white" stroke="white" stroke-width="1.01926" stroke-miterlimit="10"/>
<path id="Vector_8" d="M50.7779 55.6075C51.4832 55.6075 52.0549 55.0357 52.0549 54.3304C52.0549 53.6252 51.4832 53.0534 50.7779 53.0534C50.0726 53.0534 49.5009 53.6252 49.5009 54.3304C49.5009 55.0357 50.0726 55.6075 50.7779 55.6075Z" fill="white" stroke="white" stroke-width="1.01926" stroke-miterlimit="10"/>
<path id="Vector_9" d="M27.3171 53.0533C27.3171 53.7585 26.7452 54.3304 26.04 54.3304C25.3349 54.3304 24.763 53.7585 24.763 53.0533C24.763 52.3482 25.3349 51.7763 26.04 51.7763C26.7452 51.7763 27.3171 52.3482 27.3171 53.0533Z" fill="white" stroke="white" stroke-width="1.01926" stroke-miterlimit="10"/>
<path id="Vector_10" d="M49.0653 19.7023C49.0653 20.4075 48.4935 20.9794 47.7883 20.9794C47.0831 20.9794 46.5112 20.4075 46.5112 19.7023C46.5112 18.9971 47.0831 18.4253 47.7883 18.4253C48.4935 18.4253 49.0653 18.9971 49.0653 19.7023Z" fill="white" stroke="white" stroke-width="1.01926" stroke-miterlimit="10"/>
<path id="Vector_11" d="M31.5097 12.283C31.5097 12.9882 30.9378 13.5601 30.2327 13.5601C29.5275 13.5601 28.9556 12.9882 28.9556 12.283C28.9556 11.5778 29.5275 11.006 30.2327 11.006C30.9378 11.006 31.5097 11.5778 31.5097 12.283Z" fill="white" stroke="white" stroke-width="1.01926" stroke-miterlimit="10"/>
<path id="Vector_12" d="M43.3171 54.3304C43.3171 55.0356 42.7453 55.6075 42.0401 55.6075C41.3349 55.6075 40.7631 55.0356 40.7631 54.3304C40.7631 53.6253 41.3349 53.0534 42.0401 53.0534C42.7453 53.0534 43.3171 53.6253 43.3171 54.3304Z" fill="white" stroke="white" stroke-width="1.01926" stroke-miterlimit="10"/>
<path id="Vector_13" d="M17.9097 42.5645C17.9097 43.2697 17.3379 43.8416 16.6327 43.8416C15.9275 43.8416 15.3557 43.2697 15.3557 42.5645C15.3557 41.8593 15.9275 41.2875 16.6327 41.2875C17.3379 41.2875 17.9097 41.8593 17.9097 42.5645Z" fill="white" stroke="white" stroke-width="1.01926" stroke-miterlimit="10"/>
<path id="Vector_14" d="M24.5467 19.7023C24.5467 20.4075 23.9749 20.9794 23.2697 20.9794C22.5645 20.9794 21.9927 20.4075 21.9927 19.7023C21.9927 18.9971 22.5645 18.4253 23.2697 18.4253C23.9749 18.4253 24.5467 18.9971 24.5467 19.7023Z" fill="white" stroke="white" stroke-width="1.01926" stroke-miterlimit="10"/>
<path id="Vector_15" d="M52.7808 36.7808C52.7808 37.3349 52.3335 37.7823 51.7794 37.7823C51.2253 37.7823 50.7779 37.3349 50.7779 36.7808C50.7779 36.2268 51.2253 35.7794 51.7794 35.7794C52.3335 35.7794 52.7808 36.2268 52.7808 36.7808Z" fill="white" stroke="white" stroke-width="1.01926" stroke-miterlimit="10"/>
<path id="Vector_16" d="M53.7823 28.6267C54.3354 28.6267 54.7838 28.1784 54.7838 27.6253C54.7838 27.0722 54.3354 26.6238 53.7823 26.6238C53.2292 26.6238 52.7808 27.0722 52.7808 27.6253C52.7808 28.1784 53.2292 28.6267 53.7823 28.6267Z" fill="white" stroke="white" stroke-width="1.01926" stroke-miterlimit="10"/>
<path id="Vector_17" d="M53.7823 44.843C54.3354 44.843 54.7838 44.3947 54.7838 43.8416C54.7838 43.2885 54.3354 42.8401 53.7823 42.8401C53.2292 42.8401 52.7808 43.2885 52.7808 43.8416C52.7808 44.3947 53.2292 44.843 53.7823 44.843Z" fill="white" stroke="white" stroke-width="1.01926" stroke-miterlimit="10"/>
</g>
</svg>
