<svg xmlns="http://www.w3.org/2000/svg" viewBox="0 0 234.14 234.14"><defs><style>.cls-1,.cls-2{fill:#fff;stroke:#fff;stroke-miterlimit:10;}.cls-1{stroke-width:1.21px;}.cls-2{stroke-width:3.44px;}</style></defs><g id="Слой_2" data-name="Слой 2"><g id="Layer_1" data-name="Layer 1"><path class="cls-1" d="M117.07,233.53A116.46,116.46,0,1,1,233.54,117.07,116.59,116.59,0,0,1,117.07,233.53Zm0-231.94A115.48,115.48,0,1,0,232.55,117.07,115.61,115.61,0,0,0,117.07,1.59Z"/><path class="cls-1" d="M117.07,214.91a97.84,97.84,0,1,1,97.84-97.84A97.95,97.95,0,0,1,117.07,214.91Zm0-194.7a96.86,96.86,0,1,0,96.86,96.86A97,97,0,0,0,117.07,20.21Z"/><path class="cls-1" d="M117.07,200.24a83.17,83.17,0,1,1,83.17-83.17A83.26,83.26,0,0,1,117.07,200.24Zm0-165.36a82.19,82.19,0,1,0,82.19,82.19A82.28,82.28,0,0,0,117.07,34.88Z"/><path class="cls-1" d="M117.07,185.57a68.5,68.5,0,1,1,68.5-68.5A68.58,68.58,0,0,1,117.07,185.57Zm0-136a67.52,67.52,0,1,0,67.52,67.52A67.6,67.6,0,0,0,117.07,49.55Z"/><path class="cls-1" d="M117.07,172.48a55.41,55.41,0,1,1,55.41-55.41A55.48,55.48,0,0,1,117.07,172.48Zm0-109.84a54.43,54.43,0,1,0,54.43,54.43A54.5,54.5,0,0,0,117.07,62.64Z"/><path class="cls-2" d="M66.42,121.38a4.31,4.31,0,1,1-4.31-4.31A4.31,4.31,0,0,1,66.42,121.38Z"/><path class="cls-2" d="M130.77,49.06a4.31,4.31,0,1,1-4.3-4.31A4.31,4.31,0,0,1,130.77,49.06Z"/><circle class="cls-2" cx="168.61" cy="180.6" r="4.31"/><path class="cls-2" d="M89.43,176.3A4.31,4.31,0,1,1,85.12,172,4.3,4.3,0,0,1,89.43,176.3Z"/><path class="cls-2" d="M162.83,63.74a4.31,4.31,0,1,1-4.31-4.31A4.31,4.31,0,0,1,162.83,63.74Z"/><path class="cls-2" d="M103.58,38.7a4.31,4.31,0,1,1-4.31-4.31A4.31,4.31,0,0,1,103.58,38.7Z"/><path class="cls-2" d="M143.43,180.6a4.31,4.31,0,1,1-4.3-4.3A4.31,4.31,0,0,1,143.43,180.6Z"/><path class="cls-2" d="M57.68,140.9a4.31,4.31,0,1,1-4.31-4.31A4.31,4.31,0,0,1,57.68,140.9Z"/><path class="cls-2" d="M80.08,63.74a4.31,4.31,0,1,1-4.31-4.31A4.31,4.31,0,0,1,80.08,63.74Z"/><path class="cls-2" d="M175.37,121.38A3.38,3.38,0,1,1,172,118,3.38,3.38,0,0,1,175.37,121.38Z"/><circle class="cls-2" cx="178.75" cy="90.47" r="3.38"/><circle class="cls-2" cx="178.75" cy="145.21" r="3.38"/></g></g></svg>